<?xml version="1.0" encoding="UTF-8"?><svg version="1.1" width="50px" height="51px" viewBox="0 0 50.0 51.0" xmlns="http://www.w3.org/2000/svg" xmlns:xlink="http://www.w3.org/1999/xlink"><defs><clipPath id="i0"><path d="M3,0 C4.65685425,0 6,1.34314575 6,3 C6,4.65685425 4.65685425,6 3,6 C1.34314575,6 0,4.65685425 0,3 C0,1.34314575 1.34314575,0 3,0 Z"></path></clipPath></defs><g transform="translate(-122.0 -866.0)"><g transform="translate(0.0 243.04797047970487)"><g transform="translate(12.0 34.0)"><g transform="translate(0.0 126.0)"><g transform="translate(46.0 463.0)"><g transform="translate(66.0 2.0)"><path d="M38,0 C40.209139,0 42.209139,0.8954305 43.6568542,2.34314575 C45.1045695,3.790861 46,5.790861 46,8 L46,38 C46,40.209139 45.1045695,42.209139 43.6568542,43.6568542 C42.209139,45.1045695 40.209139,46 38,46 L8,46 C5.790861,46 3.790861,45.1045695 2.34314575,43.6568542 C0.8954305,42.209139 0,40.209139 0,38 L0,8 C0,5.790861 0.8954305,3.790861 2.34314575,2.34314575 C3.790861,0.8954305 5.790861,0 8,0 L38,0 Z" stroke="#FFECA8" stroke-width="4" fill="none" stroke-miterlimit="10"></path><g transform="translate(13.0 7.0)"><g transform="translate(0.0 6.0)"><path d="M10,20 C15.5228475,20 20,15.5228475 20,10 C20,4.4771525 15.5228475,0 10,0 C4.4771525,0 0,4.4771525 0,10 C0,15.5228475 4.4771525,20 10,20 Z" stroke="#FFECA8" stroke-width="4" fill="none" stroke-miterlimit="10"></path></g><g transform="translate(20.99999999999999 0.0)"><g clip-path="url(#i0)"><polygon points="0,0 6,0 6,6 0,6 0,0" stroke="none" fill="#FFECA8"></polygon></g></g></g></g></g></g></g></g></g></svg>